<?xml version="1.0" encoding="utf-8"?>
<!-- Generator: Adobe Illustrator 16.0.0, SVG Export Plug-In . SVG Version: 6.00 Build 0)  -->
<!DOCTYPE svg PUBLIC "-//W3C//DTD SVG 1.1//EN" "http://www.w3.org/Graphics/SVG/1.1/DTD/svg11.dtd">
<svg version="1.1" id="Layer_1" xmlns="http://www.w3.org/2000/svg" xmlns:xlink="http://www.w3.org/1999/xlink" x="0px" y="0px"
	 width="629.368px" height="924.059px" viewBox="0 0 629.368 924.059" enable-background="new 0 0 629.368 924.059"
	 xml:space="preserve">
<g>
	<g>
		<path fill="none" stroke="#676767" stroke-width="40" stroke-linecap="round" stroke-linejoin="round" stroke-miterlimit="10" d="
			M314.7,20C152.219,20,20,152.213,20,314.732c0,48.773,12.211,97.096,35.381,140.008l243.212,439.822
			c3.236,5.877,9.408,9.496,16.106,9.496c6.701,0,12.871-3.619,16.109-9.496l243.274-439.965
			c23.107-42.77,35.285-91.092,35.285-139.865C609.37,152.211,477.185,20,314.7,20z M314.7,462.064
			c-81.256,0-147.334-66.15-147.334-147.332c0-81.268,66.078-147.402,147.334-147.402c81.259,0,147.336,66.137,147.336,147.402
			C462.036,395.914,395.958,462.064,314.7,462.064z"/>
	</g>
</g>
</svg>
